<svg width="512" height="512" viewBox="0 0 512 512" fill="none" xmlns="http://www.w3.org/2000/svg">
  <rect width="512" height="512" rx="80" fill="#1A4D2E"/>
  <path d="M128 320h256c17.7 0 32 14.3 32 32v32c0 17.7-14.3 32-32 32H128c-17.7 0-32-14.3-32-32v-32c0-17.7 14.3-32 32-32z" fill="#D9A520"/>
  <path d="M160 256h192c26.5 0 48-21.5 48-48v-80c0-26.5-21.5-48-48-48H160c-26.5 0-48 21.5-48 48v80c0 26.5 21.5 48 48 48z" fill="#D9A520"/>
  <circle cx="180" cy="180" r="24" fill="#1A4D2E"/>
  <circle cx="332" cy="180" r="24" fill="#1A4D2E"/>
  <rect x="224" y="384" width="64" height="48" rx="8" fill="#1A4D2E"/>
</svg>
